# xmcd CD database file
#
# Track frame offsets:
#	150
#	16890
#	36595
#	51977
#	67465
#	79625
#	91475
#	108503
#	123905
#	139817
#	157412
#	172935
#	190355
#	204698
#	220765
#	235313
#	249432
#	264120
#	280810
#	294267
#	308290
#	321605
#
# Disc length: 4427 seconds
#
# Revision: 0
# Processed by: cddbd v1.5.2PL0 Copyright (c) Steve Scherf et al.
# Submitted via: CDex 1.70beta2
#
DISCID=4a114916
DTITLE=ChartBreakers - ChartBreakers CGC-519
DYEAR=1900
DGENRE=Country
TTITLE0=Ronnie Milsap - Turn That Radio On
TTITLE1=Lorrie Morgan - Something In Red
TTITLE2=Reba McEntire - Whoever's In New England
TTITLE3=Paul Overstreet - Seein' My Father In Me
TTITLE4=Restless Heart - You Can Depend On Me
TTITLE5=Ricky Van Shelton - Hole In My Pocket
TTITLE6=Shenandoah - I Got You
TTITLE7=Judds - Have Mercy
TTITLE8=Sammy Kershaw - Yard Sale
TTITLE9=Tracy Lawrence - Today's Lonely Fool
TTITLE10=Shenandoah - Mama Knows
TTITLE11=Doug Stone - Come Out Of The Pain
TTITLE12=George Strait - Am I Blue
TTITLE13=George Strait - Baby Blue
TTITLE14=Marty Stuart - Little Things
TTITLE15=Sweethearts Of The Rodeo - Midnight Girl/Sunset Town
TTITLE16=Pam Tillis - Cleopatra, Queen Of Denial
TTITLE17=Randy Travis and George Jones - A Few Ole Country Boys
TTITLE18=Randy Travis - Diggin' Up Bones
TTITLE19=Randy Travis - Forever Together
TTITLE20=Tanya Tucker - Here's Some Love
TTITLE21=George Strait - If You Ain't Lovin' (You Ain't Livin')
EXTD=YEAR: 1900
EXTT0=
EXTT1=
EXTT2=
EXTT3=
EXTT4=
EXTT5=
EXTT6=
EXTT7=
EXTT8=
EXTT9=
EXTT10=
EXTT11=
EXTT12=
EXTT13=
EXTT14=
EXTT15=
EXTT16=
EXTT17=
EXTT18=
EXTT19=
EXTT20=
EXTT21=
PLAYORDER=
